# xmcd
#
# Track frame offsets:
#	150
#	16652
#	32896
#	48055
#	65316
#	77590
#	92852
#	107768
#	126428
#	143456
#	156294
#	169551
#	183451
#	198607
#
# Disc length: 2881 seconds
#
# Revision: 1
# Processed by: cddbd v1.5.1PL2 Copyright (c) Steve Scherf et al.
# Submitted via: audiograbber 1.83.01
#
DISCID=b00b3f0e
DTITLE=Star Disc - SD142
DYEAR=2006
DGENRE=Karaoke
TTITLE0=Hill, Faith - Lucky One, The
TTITLE1=Paisley, Brad - World, The
TTITLE2=McGraw, Tim - When The Stars Go Blue
TTITLE3=McGraw, Tim - I've Got Friends That Do
TTITLE4=Sugarland - Down In Mississippi (Up To No Good)
TTITLE5=Gracin, Josh - Favorite State Of Mind
TTITLE6=Wilson, Gretchen and Merle Haggard - Politically Uncorrect
TTITLE7=Little Big Town - Bring It On Home
TTITLE8=Church, Eric - How 'Bout You
TTITLE9=Monroe, Ashley - Satisfied
TTITLE10=Owen, Jake - Yee Haw
TTITLE11=Lost Trailers - Chicken Fried
TTITLE12=Peck, Danielle - Findin' A Good Man
TTITLE13=Bon Jovi and Jennifer Nettles - Who Says You Can't Go Home
EXTD=As Listed In KJ Pro
EXTT0=
EXTT1=
EXTT2=
EXTT3=
EXTT4=
EXTT5=
EXTT6=
EXTT7=
EXTT8=
EXTT9=
EXTT10=
EXTT11=
EXTT12=
EXTT13=
PLAYORDER=
